<svg width="12" height="26" viewBox="0 0 12 26" fill="none" xmlns="http://www.w3.org/2000/svg">
<path d="M10.8789 0.792721L8.2171 0.787476C5.22666 0.787476 3.29409 3.22288 3.29409 6.9923V9.85315H0.617762C0.386495 9.85315 0.199219 10.0834 0.199219 10.3675V14.5125C0.199219 14.7967 0.38671 15.0267 0.617762 15.0267H3.29409V25.4859C3.29409 25.77 3.48137 26 3.71263 26H7.20448C7.43575 26 7.62303 25.7697 7.62303 25.4859V15.0267H10.7523C10.9835 15.0267 11.1708 14.7967 11.1708 14.5125L11.1721 10.3675C11.1721 10.2311 11.1279 10.1005 11.0495 10.004C10.9712 9.90744 10.8644 9.85315 10.7533 9.85315H7.62303V7.42797C7.62303 6.26234 7.84917 5.6706 9.08537 5.6706L10.8785 5.66982C11.1095 5.66982 11.2968 5.43952 11.2968 5.15572V1.30682C11.2968 1.02328 11.1097 0.793246 10.8789 0.792721Z" fill="#FF8513"/>
</svg>
