<svg width="12" height="26" viewBox="0 0 12 26" fill="none" xmlns="http://www.w3.org/2000/svg">
<path d="M10.8789 0.792844L8.2171 0.787598C5.22666 0.787598 3.29409 3.223 3.29409 6.99242V9.85327H0.617762C0.386495 9.85327 0.199219 10.0836 0.199219 10.3676V14.5127C0.199219 14.7968 0.38671 15.0268 0.617762 15.0268H3.29409V25.486C3.29409 25.7701 3.48137 26.0001 3.71263 26.0001H7.20448C7.43575 26.0001 7.62303 25.7698 7.62303 25.486V15.0268H10.7523C10.9835 15.0268 11.1708 14.7968 11.1708 14.5127L11.1721 10.3676C11.1721 10.2312 11.1279 10.1006 11.0495 10.0041C10.9712 9.90756 10.8644 9.85327 10.7533 9.85327H7.62303V7.42809C7.62303 6.26246 7.84917 5.67073 9.08537 5.67073L10.8785 5.66994C11.1095 5.66994 11.2968 5.43964 11.2968 5.15585V1.30694C11.2968 1.0234 11.1097 0.793368 10.8789 0.792844Z" fill="#FF8513"/>
</svg>
