<svg width="12" height="10" viewBox="0 0 12 10" fill="none" xmlns="http://www.w3.org/2000/svg">
<path d="M1.79872 5.06671C1.2788 5.06671 0.853409 4.6264 0.853409 4.08824V1.64205C0.853409 1.10389 1.2788 0.663574 1.79872 0.663574H5.57994C6.09986 0.663574 6.52525 1.10389 6.52525 1.64205V4.08824C6.52525 4.6264 6.09986 5.06671 5.57994 5.06671H4.63464V6.53443L3.21668 5.06671H1.79872ZM10.3065 8.00214C10.8264 8.00214 11.2518 7.56183 11.2518 7.02366V4.57748C11.2518 4.03931 10.8264 3.599 10.3065 3.599H7.47056V4.08824C7.47056 5.16456 6.61978 6.04519 5.57994 6.04519V7.02366C5.57994 7.56183 6.00533 8.00214 6.52525 8.00214H7.47056V9.46985L8.88852 8.00214H10.3065Z" fill="#303030"/>
</svg>
