<svg width="22" height="22" viewBox="0 0 22 22" fill="none" xmlns="http://www.w3.org/2000/svg">
<path d="M21.4075 3.24472C20.6 3.67136 19.7923 3.9378 18.9852 4.04481C19.8968 3.37293 20.5135 2.42372 20.8348 1.19726C20.0008 1.80506 19.111 2.22088 18.1647 2.44495C17.331 1.35713 16.3066 0.812988 15.0908 0.812988C13.9274 0.812988 12.9355 1.31684 12.1146 2.32476C11.2942 3.33263 10.8839 4.55102 10.8839 5.98009C10.8839 6.36397 10.9186 6.75873 10.9881 7.16396C9.26886 7.05733 7.65607 6.52676 6.14948 5.57223C4.64297 4.61758 3.36442 3.34575 2.31383 1.7567C1.93177 2.5564 1.74068 3.42576 1.74068 4.36427C1.74068 5.24948 1.90997 6.0708 2.24878 6.82805C2.58736 7.58516 3.04332 8.19833 3.61641 8.66766C2.93903 8.63561 2.3052 8.41692 1.71486 8.01163V8.07562C1.71486 9.32354 2.03396 10.4192 2.67207 11.3633C3.31027 12.3074 4.11567 12.9016 5.08807 13.147C4.72335 13.2642 4.35425 13.3229 3.98095 13.3229C3.7378 13.3229 3.47294 13.2962 3.18646 13.2433C3.45561 14.2776 3.95057 15.1278 4.67116 15.7948C5.39188 16.4613 6.20809 16.8049 7.11983 16.8267C5.5917 18.2983 3.8508 19.0341 1.89715 19.0341C1.52372 19.0341 1.18518 19.0132 0.881226 18.9703C2.83493 20.5166 4.98826 21.2897 7.34135 21.2897C8.8348 21.2897 10.2371 20.9994 11.5478 20.4179C12.8592 19.8369 13.9791 19.0583 14.9083 18.0822C15.8372 17.1064 16.6383 15.9839 17.3113 14.7148C17.9841 13.4456 18.4854 12.1205 18.8156 10.7394C19.1454 9.35805 19.3104 7.97454 19.3104 6.58783C19.3104 6.28917 19.3061 6.06531 19.2973 5.91593C20.1225 5.18038 20.8257 4.28968 21.4075 3.24472Z" fill="#FF8513"/>
</svg>
