<svg width="22" height="22" viewBox="0 0 22 22" fill="none" xmlns="http://www.w3.org/2000/svg">
<path d="M21.4076 3.24472C20.6002 3.67136 19.7924 3.9378 18.9853 4.04481C19.8969 3.37293 20.5136 2.42372 20.835 1.19726C20.0009 1.80506 19.1111 2.22088 18.1648 2.44495C17.3311 1.35713 16.3067 0.812988 15.0909 0.812988C13.9275 0.812988 12.9356 1.31684 12.1147 2.32476C11.2943 3.33263 10.8841 4.55102 10.8841 5.98009C10.8841 6.36397 10.9187 6.75873 10.9883 7.16396C9.26899 7.05733 7.65619 6.52676 6.1496 5.57223C4.64309 4.61758 3.36454 3.34575 2.31396 1.7567C1.93189 2.5564 1.7408 3.42576 1.7408 4.36427C1.7408 5.24948 1.91009 6.0708 2.2489 6.82805C2.58748 7.58516 3.04344 8.19833 3.61653 8.66766C2.93915 8.63561 2.30532 8.41692 1.71499 8.01163V8.07562C1.71499 9.32354 2.03408 10.4192 2.6722 11.3633C3.3104 12.3074 4.11579 12.9016 5.08819 13.147C4.72347 13.2642 4.35438 13.3229 3.98107 13.3229C3.73792 13.3229 3.47307 13.2962 3.18659 13.2433C3.45573 14.2776 3.95069 15.1278 4.67128 15.7948C5.39201 16.4613 6.20821 16.8049 7.11995 16.8267C5.59182 18.2983 3.85092 19.0341 1.89727 19.0341C1.52384 19.0341 1.1853 19.0132 0.881348 18.9703C2.83505 20.5166 4.98838 21.2897 7.34147 21.2897C8.83492 21.2897 10.2372 20.9994 11.5479 20.4179C12.8593 19.8369 13.9793 19.0583 14.9084 18.0822C15.8374 17.1064 16.6385 15.9839 17.3114 14.7148C17.9842 13.4456 18.4855 12.1205 18.8157 10.7394C19.1455 9.35805 19.3105 7.97454 19.3105 6.58783C19.3105 6.28917 19.3062 6.06531 19.2974 5.91593C20.1226 5.18038 20.8258 4.28968 21.4076 3.24472Z" fill="#FF8513"/>
</svg>
