<svg width="23" height="20" viewBox="0 0 23 20" fill="none" xmlns="http://www.w3.org/2000/svg">
<path d="M21.6842 2.1966C20.9022 1.05467 19.4581 0.588867 16.7005 0.588867H6.69013C3.86933 0.588867 2.40089 1.08471 1.62172 2.30046C0.862061 3.48583 0.862061 5.23237 0.862061 7.64961V12.2569C0.862061 16.9399 1.76339 19.3176 6.69013 19.3176H16.7005C19.092 19.3176 20.4172 18.9066 21.2745 17.8988C22.1537 16.8654 22.5288 15.1781 22.5288 12.2569V7.64961C22.5288 5.10042 22.47 3.34358 21.6842 2.1966ZM14.7722 10.5893L10.2265 13.5073C10.1249 13.5726 10.0137 13.6049 9.90273 13.6049C9.77706 13.6049 9.65168 13.5634 9.54062 13.4808C9.3315 13.3252 9.20381 13.0468 9.20381 12.7465V6.92919C9.20381 6.62942 9.33115 6.35128 9.53986 6.19555C9.74862 6.03984 10.0083 6.02919 10.2249 6.1674L14.7706 9.06658C15.0019 9.21408 15.147 9.50733 15.1474 9.82727C15.1477 10.1475 15.0031 10.4412 14.7722 10.5893Z" fill="#FF8513"/>
</svg>
